<?xml version="1.0" standalone="no"?><!DOCTYPE svg PUBLIC "-//W3C//DTD SVG 1.1//EN" "http://www.w3.org/Graphics/SVG/1.1/DTD/svg11.dtd"><svg t="1745599390060" class="icon" viewBox="0 0 1024 1024" version="1.1" xmlns="http://www.w3.org/2000/svg" p-id="7636" xmlns:xlink="http://www.w3.org/1999/xlink" width="200" height="200"><path d="M50.40762451 255.8427599h774.62628531v512.52670655h-774.62628531z" fill="#EEC887" p-id="7637"></path><path d="M825.03390982 255.8427599h148.55846567v512.52670655h-148.55846567z" fill="#68553A" p-id="7638"></path><path d="M98.15855991 646.12707184h94.01628614v12.73358278H98.15855991zM98.15855991 672.23091652h72.79364818v12.73358279H98.15855991zM98.15855991 696.42472383h72.79364818v12.73358275H98.15855991zM98.15855991 721.89188936h111.41884926v12.73358277H98.15855991z" fill="#FFFFFF" p-id="7639"></path><path d="M746.93460213 333.51761481c2.12226377-2.12226377 2.12226377-5.30565951 0-7.21569688-2.12226377-2.12226377-5.30565951-2.12226377-7.21569692 0-2.12226377 2.12226377-2.12226377 5.30565951 0 7.21569688 1.91003742 2.12226377 5.0934331 2.12226377 7.21569692 0z m-36.92739002 29.49946676l44.35531331-22.28376985 22.28376983-44.35531332-44.3553133 22.28376987-22.28376984 44.3553133z m55.39108504-55.39108505l-14.85584657 29.49946674-29.49946675 14.85584655 14.85584657-29.49946671 29.49946675-14.85584658z m-22.28376985-35.229579c-31.83395693 0-57.51334887 25.67939191-57.51334885 57.51334884 0 31.83395693 25.67939191 57.51334887 57.51334885 57.51334887 31.83395693 0 57.51334887-25.67939191 57.51334888-57.51334887 0-31.83395693-25.67939191-57.51334887-57.51334888-57.51334884z m2.75894297 109.29658545V374.0528533c0-1.48558467-1.06113191-2.54671655-2.54671656-2.54671655s-2.54671655 1.06113191-2.54671654 2.54671655v7.64014967c-26.52829744-1.27335829-47.96316177-22.70822261-49.66097284-49.23652006h7.85237602c1.48558467 0 2.54671655-1.06113191 2.54671655-2.54671655s-1.06113191-2.54671655-2.54671655-2.54671656h-7.85237602c1.48558467-26.52829744 22.92044898-47.96316177 49.66097284-49.23652007v7.64014968c0 1.48558467 1.06113191 2.54671655 2.54671654 2.54671656s2.54671655-1.06113191 2.54671656-2.54671656v-7.64014968c26.52829744 1.27335829 47.96316177 22.70822261 49.66097279 49.23652007h-7.85237605c-1.48558467 0-2.54671655 1.06113191-2.54671656 2.54671656s1.06113191 2.54671655 2.54671656 2.54671655h7.85237605c-1.69781103 26.52829744-23.13267539 47.96316177-49.66097279 49.23652006z m0 0" fill="#847155" p-id="7640"></path><path d="M177.74345225 388.69647349c-4.88120675-6.36679139-7.42792329-10.61131898-7.64014968-10.82354533l7.21569691-4.45675401s2.54671655 4.03230121 7.00347053 9.97463987l-6.57901776 5.30565947zM672.6553693 703.42819433c-8.48905517-0.8489055-16.97811037-1.91003742-25.04271279-2.75894292l1.06113189-8.48905518c8.06460243 1.06113191 16.55365761 1.91003742 24.83048642 2.75894293l-0.84890552 8.48905517z m-50.08542556-6.154565c-8.48905517-1.27335829-16.97811037-2.54671655-25.04271279-3.82007483l1.27335826-8.27682879c7.85237605 1.27335829 16.34143122 2.54671655 24.83048645 3.82007483l-1.06113192 8.27682879z m-49.87319919-8.0646024c-8.70128155-1.69781103-16.97811037-3.39562207-24.83048639-5.30565951l1.91003741-8.27682879c7.64014967 1.69781103 15.91697847 3.39562207 24.40603363 5.09343309l-1.48558465 8.48905521z m-49.23652004-11.46022449c-8.70128155-2.54671655-16.97811037-5.0934331-24.19380728-7.64014968l2.75894295-8.06460243c7.21569693 2.54671655 15.06807296 5.0934331 23.76935448 7.42792328l-2.33449015 8.27682883z m-47.7509354-17.61478953c-9.55018707-4.88120675-16.76588399-9.76241347-21.85931709-14.85584655l6.15456501-5.94233864c4.24452758 4.45675397 10.82354535 8.91350797 19.5248269 13.3702619l-3.82007482 7.42792329z m-18.67592141-37.56406917l-6.79124414-5.09343311c4.45675397-5.73011225 12.09690362-10.61131898 22.920449-14.43139382l2.97116928 8.06460241c-9.12573432 2.97116932-15.91697847 7.00347051-19.10037414 11.46022452z m199.70502316-13.37026193c-2.54671655 0-5.0934331 0-7.64014968-0.21222635l0.21222637-8.48905521c8.70128155 0.2122264 16.76588399 0 24.61826006-0.63667911l0.63667911 8.48905516c-5.51788584 0.63667916-11.67245087 0.8489055-17.82701586 0.84890551z m-33.1073152-2.54671655c-8.2768288-1.27335829-16.76588399-2.12226377-24.83048645-2.97116931l0.84890552-8.48905515c8.2768288 0.8489055 16.55365761 1.91003742 25.04271279 3.18339565l-1.06113186 8.27682881z m-123.94020567-1.69781104l-1.48558465-8.2768288c7.85237605-1.27335829 16.34143122-2.33449019 25.46716553-2.97116928l0.63667914 8.48905514c-8.70128155 0.42445275-16.97811037 1.48558467-24.61826002 2.75894294z m200.55392864-0.42445276l-1.91003738-8.27682878c8.91350797-2.12226377 16.34143122-5.0934331 22.07154344-8.48905517l4.45675396 7.21569689c-6.57901776 4.03230121-14.85584656 7.21569693-24.61826002 9.55018706z m-126.2746958-2.7589429c-8.2768288-0.42445275-16.34143122-0.63667916-23.9815809-0.63667916h-0.8489055v-8.48905521h0.8489055c7.85237605 0 16.12920482 0.2122264 24.40603364 0.63667919l-0.42445274 8.48905518z m157.25974724-29.49946678c-0.8489055-4.88120675-5.73011225-10.18686621-14.21916745-14.85584657l4.03230121-7.42792328c13.79471466 7.64014967 17.61478951 15.70475208 18.46369503 21.01041159l-8.27682879 1.27335826z m-36.5029373-23.76935451c-7.21569693-2.12226377-15.28029931-3.82007485-23.98158089-5.30565948l1.48558464-8.27682881c9.12573432 1.48558467 17.61478951 3.39562207 25.04271281 5.51788586l-2.54671656 8.06460243z m-48.59984093-8.48905518c-7.85237605-0.8489055-16.12920482-1.27335829-24.83048638-1.69781102l0.42445275-8.4890552c8.70128155 0.42445275 17.19033673 1.06113191 25.25493918 1.91003741l-0.84890555 8.27682881z m-73.43032729-2.33449018l-2.33449019-0.42445276 1.48558466-8.27682878 1.48558467 0.21222636c8.06460243-0.2122264 15.70475208-0.2122264 22.92044899-0.21222636v8.48905516c-7.42792329 0-15.06807296 0-23.13267537 0.21222638h-0.42445276z m-27.37720296-8.48905518c-9.97463982-5.73011225-15.28029931-13.58248828-15.49252572-23.34490173l8.4890552-0.21222639c0.2122264 6.79124416 3.82007485 12.09690362 11.24799812 16.12920486l-4.2445276 7.42792326z m0.21222638-44.77976608l-7.2156969-4.45675396c3.82007485-6.36679139 9.12573432-13.37026191 15.70475208-20.58595882l6.36679135 5.73011226c-6.36679139 7.00347051-11.2479981 13.37026191-14.85584653 19.31260052z m-239.60358251-18.03924224c-8.48905517-0.63667916-17.19033673-2.12226377-25.46716553-4.45675394l2.1222638-8.27682883c7.85237605 2.12226377 15.91697847 3.39562207 23.98158088 4.2445276l-0.63667915 8.48905517z m25.89161831-0.21222638l-0.84890552-8.48905519c7.85237605-0.8489055 15.91697847-2.12226377 23.9815809-4.24452761l2.12226378 8.27682883c-8.2768288 2.12226377-16.76588399 3.60784845-25.25493916 4.45675397z m49.66097284-12.94580918l-3.39562211-7.85237603c7.21569693-2.97116932 14.64362021-6.79124416 22.07154349-10.82354534l4.24452758 7.42792327c-7.64014967 4.24452758-15.28029931 8.06460243-22.92044896 11.2479981z m-125.21356395 0c-7.64014967-3.39562207-15.28029931-7.64014967-22.49599622-12.30912999l4.66898036-7.21569691c7.00347051 4.45675397 14.21916742 8.48905517 21.43486431 11.67245087l-3.60784845 7.85237603z m321.52296499-5.30565947l-5.73011223-6.36679137c8.91350797-8.06460243 16.55365761-13.79471466 19.31260051-15.91697846l0.42445278-0.21222641 5.0934331 6.79124415-0.42445278 0.42445278c-2.54671655 1.69781103-9.76241347 7.42792329-18.67592138 15.28029931z m-151.74186135-19.7370533l-4.88120676-7.00347054c4.66898033-3.1833957 9.33796071-6.79124416 14.00694108-10.39909256 1.91003742-1.48558467 3.82007485-3.1833957 5.94233862-4.66898036l5.30565948 6.79124416-5.73011223 4.45675396c-5.0934331 3.82007485-9.97463982 7.42792329-14.64362019 10.82354534z m-213.07528506-2.54671653c-6.36679139-5.30565951-12.73358277-11.2479981-18.67592138-17.61478951l6.154565-5.94233862c5.73011225 5.94233862 11.88467725 11.67245087 18.03924225 16.97811036l-5.51788587 6.57901777z m402.80566834-11.88467726l-6.57901777-5.3056595c5.30565951-6.79124416 8.91350797-13.79471466 10.61131897-20.58595881l8.27682883 2.1222638c-2.12226377 8.06460243-6.154565 16.12920482-12.30913003 23.76935451z m-149.61959755-15.70475208l-4.88120673-7.00347054c7.21569693-5.0934331 14.21916742-9.76241347 21.22263796-14.00694106l4.45675393 7.2156969c-6.79124416 4.24452758-13.79471466 8.91350797-20.79818516 13.7947147z m42.4452759-26.10384468l-4.03230122-7.42792329c7.85237605-4.03230121 15.70475208-7.85237605 23.13267537-10.82354537l3.1833957 7.85237602c-7.21569693 2.97116932-14.64362021 6.36679139-22.28376985 10.39909264z m109.29658545-5.30565951c-3.1833957-6.154565-8.91350797-10.82354535-16.76588398-13.58248827l2.97116929-8.06460244c9.76241347 3.60784845 17.19033673 9.55018707 21.22263798 17.61478953l-7.42792329 4.03230118z m-63.66791385-12.94580915l-2.1222638-8.27682879c9.12573432-2.33449019 17.61478951-3.60784845 25.67939192-4.03230122l0.42445278 8.4890552c-7.42792329 0.42445275-15.49252573 1.69781103-23.9815809 3.82007481zM711.06834398 707.0360428c-4.24452758-0.42445275-8.48905517-0.63667916-12.73358273-1.0611319l0.8489055-8.48905518c4.24452758 0.42445275 8.48905517 0.63667916 12.73358277 1.06113188l-0.84890554 8.4890552z" fill="#68573B" p-id="7641"></path><path d="M101.76640838 320.99625841H202.14948589v69.39802611h-100.38307751z" fill="#FFDEAE" p-id="7642"></path><path d="M127.23357391 298.92471495l-15.28029931 26.7405238H142.72609963zM176.68232035 298.92471495l-15.4925257 26.7405238h30.77282502z" fill="#FFDEAE" p-id="7643"></path><path d="M144.84836342 344.12893381h-6.79124416v-6.79124415h-4.45675395v6.79124415h-6.79124416v4.45675397h6.79124416v6.57901775h4.45675395V348.58568778h6.79124416zM182.62465897 344.12893381h-6.79124414v-6.79124415h-4.24452758v6.79124415h-6.79124418v4.45675397h6.79124418v6.57901775h4.24452758V348.58568778h6.79124414zM145.06058978 368.95942019h13.58248831v6.79124417h-13.58248831z" fill="#68573B" p-id="7644"></path><path d="M476.55819461 519.00347051v4.456754c0 0.2122264-0.2122264 0.42445275-0.21222637 0.63667911-0.42445275 2.33449019-0.63667916 4.88120675-1.48558467 7.21569692-2.12226377 6.79124416-5.94233862 12.5213564-11.46022449 17.19033673-4.24452758 3.60784845-8.91350797 6.154565-14.43139382 7.42792327-1.69781103 0.42445275-3.60784845 0.63667916-5.30565949 1.06113191h-4.45675393c-0.2122264 0-0.42445275-0.2122264-0.63667915-0.21222635-4.88120675-0.2122264-9.33796071-1.48558467-13.5824883-3.82007485-8.06460243-4.03230121-13.79471466-10.18686621-16.5536576-19.10037418-0.63667916-1.91003742-0.8489055-3.82007485-1.27335826-5.73011225v-4.24452757c0.2122264-1.06113191 0.42445275-2.12226377 0.42445274-3.1833957 0.8489055-4.66898033 2.97116932-8.70128155 5.73011226-12.5213564 2.54671655-3.60784845 5.30565951-7.00347051 7.85237601-10.61131897 2.54671655-4.03230121 4.03230121-8.48905517 3.18339573-13.15803553-0.2122264-1.06113191-0.2122264-1.91003742-0.42445277-2.97116929h0.21222636c5.94233862 6.154565 6.79124416 13.79471466 5.94233865 22.07154347l0.63667911-0.63667915c5.0934331-6.79124416 7.21569693-14.21916742 5.51788587-22.70822261-1.06113191-5.30565951-3.1833957-10.18686621-7.00347051-14.21916744-1.69781103-1.69781103-3.60784845-3.1833957-5.30565948-4.66898033h1.91003741c0.2122264 0 0.2122264 0.2122264 0.42445275 0.21222638 3.1833957 0.2122264 6.36679139 1.27335829 9.3379607 2.75894293 6.79124416 3.1833957 12.09690362 8.06460243 16.55365762 13.79471466 6.57901776 8.48905517 11.03577176 18.03924226 11.88467725 29.07501398 0.42445275 4.24452758 0 8.2768288-1.27335827 12.30913004-0.42445275 1.48558467-1.06113191 2.97116932-1.48558466 4.66898033 2.12226377-0.8489055 3.82007485-2.33449019 5.09343311-4.24452757 3.82007485-5.51788584 4.88120675-11.46022451 4.03230119-18.25146863 0.2122264 0.42445275 0.42445275 0.42445275 0.42445277 0.63667911 2.33449019 3.60784845 4.03230121 7.42792329 4.88120674 11.67245089 0.42445275 1.69781103 0.63667916 3.39562207 0.8489055 5.09343309m-35.65403175-7.85237601l-0.21222637 0.21222634c-0.2122264 1.69781103-0.2122264 3.39562207-0.42445275 4.88120674-0.2122264 2.54671655-0.8489055 4.88120675-2.12226382 7.21569693-1.48558467 2.75894293-3.82007485 4.45675397-6.57901777 5.94233863-2.97116932 1.48558467-4.66898033 3.60784845-4.88120672 7.00347051-0.2122264 3.39562207 0.8489055 6.36679139 3.60784843 8.48905516 2.54671655 1.91003742 5.73011225 2.54671655 8.91350798 2.54671658 5.0934331-0.2122264 8.91350797-2.54671655 10.61131896-7.85237604 1.06113191-3.60784845 0.8489055-7.42792329 0.21222637-11.24799813-1.06113191-5.0934331-2.97116932-9.97463982-5.94233864-14.00694103-1.06113191-1.27335829-2.12226377-2.12226377-3.18339567-3.18339569M732.71543472 720.40630469l-19.7370533-19.73705328 19.7370533-19.52482692-9.33796073-9.3379607-19.73705329 19.7370533-19.52482691-19.7370533-9.33796069 9.3379607 19.5248269 19.52482692-19.5248269 19.73705328 9.33796069 9.33796072 19.52482691-19.7370533 19.73705329 19.7370533z" fill="#D63737" p-id="7645"></path></svg>